<svg width="99" height="128" viewBox="0 0 99 128" fill="none" xmlns="http://www.w3.org/2000/svg">
<path d="M79.0643 43.3138L79.0617 36.2828C79.0617 35.3893 78.664 31.5835 79.7233 31.2703C80.3641 31.0808 84.4747 31.1998 85.4792 31.1993L90.7828 31.1963C95.6526 31.1945 94.998 30.806 94.9977 35.4085L94.9989 85.6198C94.9989 86.8893 95.0396 88.18 94.8953 89.4423C94.4501 93.3358 91.3311 96.567 87.4889 96.802C85.7316 96.9095 83.9327 96.8288 82.1718 96.8278L14.3144 96.8293C13.1614 96.8295 11.9473 96.9053 10.8011 96.7753C7.0111 96.345 4.07023 92.9743 3.87014 89.07C3.80432 87.7858 3.84934 86.4838 3.85147 85.197L3.85181 40.7283C3.85975 35.897 5.69808 31.495 11.1401 31.1988C15.0673 30.4118 19.2951 34.1153 19.6567 38.097C19.87 40.4463 19.7441 42.8848 19.7434 45.244L19.7426 84.507C19.7434 85.659 20.2684 88.2478 18.5647 88.3273C17.3119 88.3855 17.0551 86.6713 16.5892 85.792C13.9656 80.8408 6.29751 83.1108 6.52501 88.9423C6.72864 94.1618 11.0514 94.1858 14.6234 94.184L81.8434 94.1863C83.59 94.187 85.3664 94.2535 87.1099 94.1735C90.0044 94.0408 92.5517 91.329 92.3688 88.2888C92.0293 82.6498 84.0971 81.2203 81.9335 86.2713C81.6068 87.034 80.9088 89.836 79.3743 88.1625C78.7217 87.451 79.0629 84.1298 79.0634 83.1388L79.0643 45.9023H29.7721V46.8135H32.9413V49.4753H29.7721C29.7292 50.0175 29.7644 50.59 29.7653 51.1353L29.7721 54.2183H32.9413C32.9733 55.0788 32.9428 55.9515 32.9413 56.8133H29.7721V61.5125H32.9413V64.127H29.7721V68.951H32.9413C32.9449 69.8478 32.951 70.7448 32.9413 71.6415H29.7721V79.1343H32.2731V74.8523H34.7574V79.1343H39.7941V74.8523H42.3203V79.1343H47.2169V74.8523H49.7666V79.1343H54.6582V74.8523H57.2116V79.1343H62.1123V68.7013C62.0799 67.865 61.8825 66.539 62.3337 65.8043C63.5107 63.888 65.623 67.4008 66.2151 68.142L70.767 73.827C72.3208 75.7648 73.9696 77.6428 75.4864 79.608C77.627 82.3815 72.3135 81.7445 71.2772 81.744L32.8544 81.7435C31.4962 81.7443 29.3342 81.8748 28.0843 81.6723C26.6916 81.4465 27.2193 78.0945 27.2205 76.9668L27.2232 45.9023C25.7362 45.8598 24.2373 45.901 22.7491 45.9023V43.3138H79.0643ZM11.4416 33.793C6.21829 34.0235 6.39397 38.6548 6.39566 42.3903L6.40029 72.0928C6.40034 75.6705 6.49617 79.2733 6.39898 82.8478C7.8232 81.2725 9.76955 80.5865 11.8136 80.4515C14.0376 80.514 15.3463 81.1225 17.1745 82.3825L17.1772 42.8685C17.1787 40.2585 17.6487 37.3645 15.6691 35.3375C14.6457 34.2898 12.9182 33.4148 11.4416 33.793ZM81.6128 33.793L81.6123 77.3188C81.6121 78.9958 81.5097 80.7125 81.6128 82.3825C84.714 79.9635 88.4317 79.861 91.581 82.1355C91.877 82.37 92.186 82.5973 92.4689 82.8478V33.793H81.6128ZM64.6703 70.4608V79.1343H71.6136C70.5885 77.5488 69.2523 76.1375 68.0799 74.6653C67.1655 73.5168 65.6959 71.4255 64.6703 70.4608Z" fill="black"/>
</svg>
