<svg width="92" height="128" viewBox="0 0 92 128" fill="none" xmlns="http://www.w3.org/2000/svg">
<path d="M27.546 82.7085C28.946 83.151 30.9201 84.328 32.293 85.0082C34.9953 86.3472 37.7738 87.5887 40.4129 89.0557C42.0711 89.9775 41.3261 92.208 39.7115 91.9215C38.7987 91.7595 36.8249 90.5947 35.9109 90.136L29.0073 86.686C27.2655 85.8147 24.6279 85.325 24.5817 83.1217C24.4952 79.01 24.58 74.8747 24.58 70.7605L24.5768 35.9725C24.5727 29.1585 23.3037 30.3425 28.7533 27.5292L42.1864 20.4146C43.2231 19.8722 44.3023 19.1962 45.4028 18.8172C46.3734 18.7959 54.3691 23.4316 55.8507 24.2146L62.9716 27.9495C67.5876 30.3905 66.4823 29.1542 66.483 35.1492L66.4837 78.887C66.4837 80.182 66.6523 82.944 66.4762 84.1042C66.3387 85.01 64.8093 85.5297 64.1285 85.864L55.1758 90.3555C54.0814 90.9027 52.9787 91.5552 51.8455 92.0035C50.6806 92.4642 49.5777 91.371 49.9224 90.1127C50.2573 88.8895 52.3471 88.393 53.3103 87.894C56.694 86.141 60.1817 84.5655 63.5117 82.7085V33.5527C62.5296 33.8772 61.5982 34.4377 60.6782 34.918L55.8822 37.4712C52.9492 39.053 49.9456 40.5017 47.0494 42.1545V104.847C50.7041 102.897 54.4531 101.115 58.1515 99.2555L80.6746 87.565C81.9807 86.8727 83.3284 85.9905 84.7207 85.5232C83.5435 84.6147 82.0442 83.9695 80.7228 83.304L73.6521 79.7797C72.43 79.1795 71.1133 78.6417 69.9426 77.945C68.4502 77.0567 68.8738 75.2287 70.4436 74.8987C72.0219 75.3272 74.141 76.6617 75.6675 77.4122L83.4134 81.2305C84.1395 81.5927 87.3918 82.9575 87.7618 83.6175C88.0268 84.09 88.0009 86.4355 87.8054 86.9622C87.4526 87.9132 84.9859 88.8052 84.1245 89.2575L76.8467 93.048C66.7123 98.426 56.4736 103.589 46.2044 108.686C46.0041 108.793 45.7825 108.864 45.5704 108.943C44.8583 108.752 44.1713 108.364 43.5125 108.032L13.8167 92.815C11.9676 91.8795 4.23805 88.3865 3.27755 87.201C2.99897 82.8947 3.23844 83.612 6.64117 81.8497L18.0009 75.9432C18.7468 75.5602 19.4896 75.135 20.2934 74.8987C21.6137 75.332 22.5401 76.724 21.0749 77.7595C19.7114 78.7232 17.4102 79.7492 15.8677 80.5455L6.25215 85.5232C7.59457 86.2637 9.01254 86.895 10.3804 87.588L44.0095 104.847V42.1545C38.7687 39.2102 32.9391 36.1485 27.546 33.5527V82.7085ZM45.4028 22.1919C41.9258 24.1831 38.1104 26.1705 34.5462 28.025C32.764 28.952 30.867 29.7885 29.1604 30.8515C31.4173 31.946 33.6194 33.1815 35.8364 34.359L41.2847 37.1867C41.9442 37.535 45.1107 39.3197 45.5704 39.382C51.0037 36.6177 56.4523 33.7992 61.7956 30.8515C59.8838 29.7617 57.9127 28.7835 55.9667 27.761L47.4599 23.2582C46.7813 22.8934 46.1141 22.4852 45.4028 22.1919Z" fill="black"/>
<path d="M54.4098 50.0724C53.3813 50.0777 52.2704 49.1509 52.7933 48.0027C53.1776 47.1592 55.7547 45.8964 56.6522 45.5644C58.2777 45.4222 58.9936 47.3289 57.6916 48.3477C57.1775 48.7502 55.0243 49.8677 54.4098 50.0724Z" fill="black"/>
<path d="M54.4097 60.2738C53.3582 60.5056 52.4161 59.2231 52.8179 58.2246C53.1339 57.4393 55.8534 56.0806 56.6521 55.7631C57.7765 55.5776 58.8244 56.7043 58.2921 57.8591C57.794 58.9391 55.4131 59.9276 54.4097 60.2738Z" fill="black"/>
<path d="M54.4097 70.4613C53.3293 70.39 52.2042 69.481 52.9237 68.261C53.3671 67.5088 56.074 66.1678 56.958 65.947C57.8698 66.0993 58.8516 67.0158 58.3493 68.0365C57.9458 68.856 55.3092 70.169 54.4097 70.4613Z" fill="black"/>
<path d="M54.4099 80.9713C52.1247 81.0658 51.4737 78.1246 56.6523 76.3838C58.2148 76.3403 59.1436 78.1586 57.7716 79.2058C57.1439 79.6853 55.1607 80.7023 54.4099 80.9713Z" fill="black"/>
</svg>
