<svg width="85" height="77" viewBox="0 0 85 77" fill="none" xmlns="http://www.w3.org/2000/svg">
<path d="M12.6261 18.8795L5.21392 18.8813C3.46326 18.8815 0.129244 19.5639 0.108853 17.4267C0.0925054 15.7126 0.129318 13.9931 0.125733 12.278C0.11607 7.63982 -0.206856 9.11418 4.16993 6.63098L11.2975 2.61986C16.8377 -0.50328 14.9165 0.0341065 21.5886 0.0499825C22.5491 0.0578308 24.5001 -0.0995398 25.3392 0.107162C25.794 0.219169 26.1871 0.730363 26.6172 0.947111L35.5077 5.48064C38.7965 7.18013 37.7985 7.30548 41.3964 7.30234L64.5204 7.30077C65.6453 7.2992 69.3785 7.15748 70.2487 7.40482C70.3768 7.44115 84.6319 16.9452 84.6832 17.8034C84.7837 19.4755 79.5933 18.8607 78.1683 18.8795V36.188C82.877 37.5092 83.096 43.2956 78.0036 44.9218V49.5608C79.7103 49.5557 83.3115 48.8318 83.3333 50.7968L83.341 54.7192C83.3464 55.8193 83.6692 56.8331 82.7809 57.6818C82.15 57.7347 81.4842 57.6852 80.8497 57.6843L73.3556 57.6847C72.2479 57.6879 70.3129 58.0756 70.1898 56.6243C70.109 55.6679 69.8941 50.2297 70.5214 49.7557C70.9898 49.4018 74.9441 49.5584 75.7055 49.5608V44.9218C72.2414 44.3473 70.8408 40.3164 73.0926 40.2585C74.1059 40.2325 74.4292 41.7894 75.0906 42.3608C77.3572 44.3188 80.8471 41.1849 78.8929 39.0459C77.0516 37.0304 75.8654 40.1449 75.8748 34.7553L75.878 18.8795H41.5833H25.7291V66.049L29.558 66.045C33.4443 66.0486 33.0125 66.1333 33.013 69.2713L33.0162 74.2922C34.6182 74.2949 36.5137 74.1826 38.0729 74.2922L38.1417 74.3368C39.2385 75.0398 38.9341 76.4859 37.5006 76.5315C36.8906 76.551 36.2665 76.5151 35.6545 76.5149L6.38899 76.5131C4.78938 76.5117 2.97442 76.6012 1.40784 76.509C-0.179465 76.4157 -0.602265 74.6687 1.0693 74.3301C1.88109 74.1657 4.44996 74.2875 5.41469 74.2922L5.39847 67.3718C5.39629 65.6351 7.24656 66.04 8.57129 66.0418L12.6261 66.049V18.8795ZM17.5875 2.23809C15.9346 2.24231 15.5294 2.89641 14.1567 3.63808C11.2191 5.22568 5.22482 9.06642 2.47683 10.0163V16.6658H8.58606H23.627V2.23809H17.5875ZM25.9343 3.13908V7.29853L31.3584 7.3001C32.2654 7.30167 33.2155 7.35907 34.1186 7.29853C31.5568 5.9318 28.5905 4.33837 25.9343 3.13908ZM30.4577 9.46893H27.7506C29.2635 10.7208 30.8348 11.9124 32.3773 13.133L36.1546 16.1824C37.1483 15.2991 38.2545 14.519 39.2891 13.6761C41.0372 12.2663 42.8306 10.904 44.5544 9.46893H30.4577ZM66.6397 9.46893H50.5281C51.8434 10.5684 53.232 11.6017 54.6025 12.6412C56.037 13.766 57.6054 14.8504 58.8182 16.1824C59.7303 15.1507 66.7656 9.72344 66.7705 9.4631L66.6397 9.46893ZM70.1518 9.8165C68.2149 11.0411 66.3837 12.7643 64.6478 14.223C63.6691 15.0453 62.6144 15.8117 61.6709 16.6658H71.2506H79.5214C78.7936 15.9655 77.8505 15.3774 77.0162 14.7858L72.6073 11.6922C71.7938 11.1269 70.8169 10.532 70.1518 9.8165ZM47.4916 10.0163L42.6388 13.8691C41.5119 14.76 40.2685 15.6364 39.2891 16.6658H47.8832H56.0743L50.6448 12.419C49.9287 11.8532 48.1901 10.3264 47.4916 10.0163ZM25.9343 10.9745V16.6658H33.0162C31.8677 15.4686 27.4561 11.8705 25.9343 10.9745ZM18.3927 18.8795L21.0948 20.531C21.8891 21.0178 22.7249 21.6275 23.627 21.9265C23.5086 20.9441 23.6369 19.8724 23.627 18.8795L20.1321 18.8741C19.561 18.8721 18.9606 18.8347 18.3927 18.8795ZM15.0424 19.4897V28.8888C16.5742 27.9582 18.1283 27.048 19.6351 26.0834C20.6712 25.4734 21.7242 24.8797 22.7367 24.2368C20.5339 22.7472 17.4371 20.7768 15.0424 19.4897ZM23.3226 26.5803C21.2243 27.6483 17.5795 29.8873 15.6679 31.2386C16.7004 31.8306 17.7296 32.4201 18.7265 33.063C20.204 34.022 21.7382 35.0204 23.3226 35.82L23.3199 28.4744C23.3194 28.0576 23.5631 26.8803 23.3226 26.5803ZM15.0424 33.5682V42.6144C16.6069 41.7535 18.0612 40.714 19.6351 39.8818C20.607 39.2495 21.598 38.6299 22.6011 38.0408C19.9846 36.7057 17.6846 34.8472 15.0424 33.5682ZM23.3226 40.2729C20.7947 41.8071 18.3208 43.5896 15.6679 44.9218C16.7776 45.4961 17.8299 46.1414 18.8805 46.8031C20.328 47.7566 21.7809 48.7421 23.3226 49.5608C23.3221 48.6495 23.3645 40.3503 23.3226 40.2729ZM15.0424 47.0897V56.4131C16.6391 55.6675 18.1455 54.5754 19.6351 53.6556C20.6438 53.0414 21.7021 52.4515 22.6011 51.703C20.4048 50.7509 17.176 48.3914 15.0424 47.0897ZM72.4862 51.703V55.5148H81.0418V51.703H72.4862ZM23.3226 54.1099C21.0754 55.2574 17.8292 57.3464 15.6679 58.7943C16.7529 59.3966 17.7788 60.093 18.8805 60.6675C20.3048 61.6114 21.8165 62.5428 23.3226 63.3689C23.3223 62.4534 23.3691 54.1875 23.3226 54.1099ZM15.0424 61.0864V66.049H23.3226C22.473 65.19 16.2257 61.7181 15.0424 61.0864ZM7.79292 68.282V74.2922H30.6394V68.282C23.0266 68.2818 15.4042 68.2017 7.79292 68.282Z" fill="black"/>
</svg>
